<svg id="visual" viewBox="0 0 900 600" width="900" height="600" xmlns="http://www.w3.org/2000/svg" xmlns:xlink="http://www.w3.org/1999/xlink" version="1.1"><rect x="0" y="0" width="900" height="600" fill="#f8fafc"></rect><path d="M0 369L37.5 384.7C75 400.3 150 431.7 225 429.7C300 427.7 375 392.3 450 370.2C525 348 600 339 675 344.5C750 350 825 370 862.5 380L900 390L900 601L862.5 601C825 601 750 601 675 601C600 601 525 601 450 601C375 601 300 601 225 601C150 601 75 601 37.5 601L0 601Z" fill="#124158" stroke-linecap="round" stroke-linejoin="miter"></path></svg>